<?xml version="1.0"?>
<svg width="300" height="100" xmlns="http://www.w3.org/2000/svg" xmlns:svg="http://www.w3.org/2000/svg">
 <!-- Created with SVG-edit - https://github.com/SVG-Edit/svgedit-->

 <g class="layer">
  <title>Layer 1</title>
  <ellipse cx="85.5" cy="49.5" fill="#ff7f00" id="svg_53" rx="69" ry="31" stroke="#000000" stroke-dasharray="null" stroke-linecap="null" stroke-linejoin="null" stroke-width="2"/>
  <ellipse cx="85.5" cy="50.000002" fill="#ffffaa" id="svg_58" rx="60.000004" ry="24.5" stroke="#000000" stroke-dasharray="null" stroke-linecap="null" stroke-linejoin="null" stroke-width="2"/>
  <polygon cx="211.5" cy="174.5" edge="0" fill="none" id="svg_6" orient="x" points="211.5,174.5 211.5,174.5 211.5,174.5 211.5,174.5 211.5,174.5 211.5,174.5 " shape="regularPoly" sides="5" stroke="#000000" stroke-width="2" strokeWidth="2" strokecolor="#000000"/>
  <polygon cx="288.5" cy="166.5" fill="none" id="svg_13" orient="point" point="5" r="0" r2="0" shape="star" strokeWidth="2" strokecolor="#000000"/>
  <polygon cx="219.5" cy="67.5" fill="none" id="svg_16" orient="point" point="5" r="0" r2="0" shape="star" strokeWidth="2" strokecolor="none"/>
  <polygon cx="328.5" cy="54.5" fill="none" id="svg_18" orient="point" point="5" points="328.5,54.5 328.5,54.5 328.5,54.5 328.5,54.5 328.5,54.5 328.5,54.5 328.5,54.5 328.5,54.5 328.5,54.5 328.5,54.5 328.5,54.5 328.5,54.5 " r="0" r2="0" shape="star" stroke-width="2" strokeWidth="2" strokecolor="none"/>
  <polygon cx="208.5" cy="68.5" fill="none" id="svg_19" orient="point" point="5" points="208.5,67.83333333333333 208.65674273394467,68.28426213483334 209.1340376775301,68.2939886704167 208.75361507101204,68.58240453183332 208.89185683486164,69.03934466291663 208.5,68.76666666666667 208.10814316513836,69.03934466291663 208.24638492898796,68.58240453183332 207.8659623224699,68.2939886704167 208.34325726605533,68.28426213483334 208.5,67.83333333333333 208.65674273394467,68.28426213483334 " r="0.666667" r2="0.266667" shape="star" stroke-width="2" strokeWidth="2" strokecolor="none"/>
  <polygon cx="156.5" cy="78.5" fill="#7f007f" id="svg_23" orient="point" point="5" points="166.5,56.89949417114258 170.63812255859375,68.80435943603516 183.23907470703125,69.06114196777344 173.1956329345703,76.67554473876953 176.84532165527344,88.73910522460938 166.5,81.54019927978516 156.15467834472656,88.73910522460938 159.8043670654297,76.67554473876953 149.76092529296875,69.06114196777344 162.36187744140625,68.80435943603516 166.5,56.89949417114258 170.63812255859375,68.80435943603516 " r="17.600505" r2="7.040202" shape="star" stroke="#000000" stroke-width="2" strokeWidth="2" strokecolor="#000000"/>
  <polygon cx="43.5" cy="97.5" fill="#000000" id="svg_24" orient="point" point="5" points="43.5,97.5 43.5,97.5 43.5,97.5 43.5,97.5 43.5,97.5 43.5,97.5 43.5,97.5 43.5,97.5 43.5,97.5 43.5,97.5 43.5,97.5 43.5,97.5 " r="0" r2="0" shape="star" stroke="#000000" stroke-width="2" strokeWidth="2" strokecolor="#000000"/>
  <polygon cx="38.5" cy="95.5" fill="#000000" id="svg_27" orient="point" point="5" r="0" r2="0" shape="star" strokeWidth="2" strokecolor="#000000"/>
  <polygon cx="45.5" cy="98.5" fill="#000000" id="svg_30" orient="point" point="5" r="0" r2="0" shape="star" strokeWidth="2" strokecolor="none"/>
  <polygon cx="107.5" cy="174.5" fill="#7f007f" id="svg_34" orient="point" point="5" points="166.5,68.21067810058594 167.9787139892578,72.46473693847656 172.4814910888672,72.55648803710938 168.89259338378906,75.27740478515625 170.19677734375,79.58816528320312 166.5,77.01573181152344 162.80322265625,79.58816528320312 164.10740661621094,75.27740478515625 160.51849365234375,72.55648803710938 165.02130126953125,72.46473693847656 166.5,68.21067810058594 167.9787139892578,72.46473693847656 " r="6.289321" r2="2.515728" shape="star" stroke="#000000" stroke-width="2" strokeWidth="2" strokecolor="#000000"/>
  <ellipse cx="128.5" cy="86.5" fill="#ffffff" id="svg_55" rx="2" ry="0" stroke="#000000" stroke-dasharray="null" stroke-linecap="null" stroke-linejoin="null" stroke-width="2"/>
  <text fill="#7f007f" font-family="serif" font-size="24" font-weight="bold" id="svg_57" stroke="#000000" stroke-dasharray="null" stroke-linecap="null" stroke-linejoin="null" stroke-width="0" text-anchor="middle" x="96.5" xml:space="preserve" y="57.5">M.D.P</text>
  <polygon cx="99.5" cy="95.5" fill="#ffaaaa" id="svg_59" orient="point" point="5" points="140.5,72.53091430664062 142.6087646484375,78.59754180908203 149.0301055908203,78.72840118408203 143.91204833984375,82.608642578125 145.7718963623047,88.75614166259766 140.5,85.08763122558594 135.2281036376953,88.75614166259766 137.0879669189453,82.608642578125 131.9698944091797,78.72840118408203 138.3912353515625,78.59754180908203 140.5,72.53091430664062 142.6087646484375,78.59754180908203 " r="8.969083" r2="3.587633" shape="star" stroke="#000000" stroke-width="2" strokeWidth="2" strokecolor="#000000"/>
  <polygon cx="88.5" cy="161.5" fill="#ffaad4" id="svg_60" orient="point" point="5" points="121.5,80.29316711425781 122.72419738769531,83.81503295898438 126.45199584960938,83.89100646972656 123.48079681396484,86.14360046386719 124.56050109863281,89.71241760253906 121.5,87.58273315429688 118.43949890136719,89.71241760253906 119.51920318603516,86.14360046386719 116.54800415039062,83.89100646972656 120.27580261230469,83.81503295898438 121.5,80.29316711425781 122.72419738769531,83.81503295898438 " r="5.206833" r2="2.082733" shape="star" stroke="#000000" stroke-width="2" strokeWidth="2" strokecolor="#000000"/>
  <path d="m59.43895,49.676332l-4.13569,-1.306111l3.331499,-6.678497c0.297455,-0.595992 -0.06799,-1.272296 -0.819064,-1.509002c-0.751074,-0.236706 -1.599884,0.05495 -1.896277,0.651787l-3.331499,6.678497l-5.18422,-1.6375l3.330436,-6.678497c0.298518,-0.596838 -0.06799,-1.273141 -0.818002,-1.509848c-0.750012,-0.235861 -1.599884,0.05495 -1.896277,0.651787l-3.331499,6.678497l-4.133566,-1.305266l-1.714617,3.437312l2.284031,0.721954l-2.695157,5.402819c-0.648028,1.301884 0.151915,2.77538 1.787919,3.292753l1.727365,0.546115l-0.931672,1.865752c-0.432372,0.866514 0.100922,1.84969 1.191946,2.194605l0.987976,0.311945c1.089961,0.344915 2.3244,-0.080311 2.757835,-0.94767l0.931672,-1.865752l1.973828,0.623045c1.636004,0.516527 3.488725,-0.120044 4.138877,-1.421928l2.693032,-5.402819l2.037568,0.643334l1.713555,-3.437312z" fill="#3f3f3f" id="svg_61" stroke="#000000" stroke-dasharray="null" stroke-linecap="null" stroke-linejoin="null" stroke-width="2"/>
 </g>
</svg>
